<?xml version="1.0" encoding="utf-8"?>
<!-- Generator: Adobe Illustrator 18.1.0, SVG Export Plug-In . SVG Version: 6.00 Build 0)  -->
<!DOCTYPE svg PUBLIC "-//W3C//DTD SVG 1.1//EN" "http://www.w3.org/Graphics/SVG/1.1/DTD/svg11.dtd">
<svg version="1.1" id="Layer_1" xmlns="http://www.w3.org/2000/svg" xmlns:xlink="http://www.w3.org/1999/xlink" x="0px" y="0px"
	 viewBox="0 4.2 612 780.2" enable-background="new 0 4.2 612 780.2" xml:space="preserve">
<g>
	<path fill="#E41528" d="M287.8,23.3v702.2L31.2,468.8c-6.9-6.9-19.1-6.9-26,0s-6.9,19.1,0,26L293,782.6l0,0c0,0,0,0,1.7,1.7
		c0,0,0,0,1.7,0h1.7c0,0,0,0,1.7,0l0,0l0,0c0,0,0,0,1.7,0h1.7c0,0,0,0,1.7,0h1.7h1.7h1.7h1.7c0,0,0,0,1.7,0h1.7c0,0,0,0,1.7,0l0,0
		c0,0,0,0,1.7,0c0,0,0,0,1.7,0h1.7c0,0,0,0,1.7,0c0,0,1.7,0,1.7-1.7l0,0l280.9-287.8c3.5-3.5,5.2-8.7,5.2-13.9s-1.7-8.7-5.2-13.9
		c-6.9-6.9-19.1-6.9-26,0l0,0L324.2,725.4V23.3c0-10.4-8.7-19.1-19.1-19.1C296.5,4.2,287.8,12.8,287.8,23.3z"/>
</g>
</svg>
