<?xml version="1.0" encoding="utf-8"?>
<!-- Generator: Adobe Illustrator 18.1.0, SVG Export Plug-In . SVG Version: 6.00 Build 0)  -->
<!DOCTYPE svg PUBLIC "-//W3C//DTD SVG 1.1//EN" "http://www.w3.org/Graphics/SVG/1.1/DTD/svg11.dtd">
<svg version="1.1" id="Layer_1" xmlns="http://www.w3.org/2000/svg" xmlns:xlink="http://www.w3.org/1999/xlink" x="0px" y="0px"
	 viewBox="100.7 0 417.3 792" enable-background="new 100.7 0 417.3 792" xml:space="preserve">
<g>
	<path fill="#E41528" d="M179.2,372.4L179.2,372.4L509,40.4c9-9,9-24.7,0-33.7c-9-9-24.7-9-33.7,0L103,379.2l0,0c0,0,0,0-2.2,2.2
		c0,0,0,0,0,2.2v2.2c0,0,0,0,0,2.2l0,0l0,0c0,0,0,0,0,2.2v2.2c0,0,0,0,0,2.2v2.2v2.2v2.2v2.2c0,0,0,0,0,2.2v2.2c0,0,0,0,0,2.2l0,0
		c0,0,0,0,0,2.2c0,0,0,0,0,2.2v2.2c0,0,0,0,0,2.2c0,0,0,2.2,2.2,2.2l0,0l372.4,363.5c4.5,4.5,11.2,6.7,17.9,6.7s11.2-2.2,17.9-6.7
		c9-9,9-24.7,0-33.7l0,0L179.2,419.6l0,0c0,0-13.5-11.2-13.5-24.7C165.8,383.7,179.2,372.4,179.2,372.4z"/>
</g>
</svg>
